HIERARCHY
ROOT Hips
{
	OFFSET 40.040798 -11.952916 98.615097
	CHANNELS 6 Xposition Yposition Zposition Xrotation Yrotation Zrotation
	JOINT spine
	{
		OFFSET 0.000000 -0.477352 8.301033
		CHANNELS 3 Xrotation Yrotation Zrotation
		JOINT spine1
		{
			OFFSET 0.000000 -0.000002 10.456497
			CHANNELS 3 Xrotation Yrotation Zrotation
			JOINT spine2
			{
				OFFSET 0.000000 -0.000002 10.019203
				CHANNELS 3 Xrotation Yrotation Zrotation
				JOINT Neck
				{
					OFFSET 0.000000 -1.226414 25.723495
					CHANNELS 3 Xrotation Yrotation Zrotation
					JOINT Head
					{
						OFFSET 0.000000 -0.000001 7.771744
						CHANNELS 3 Xrotation Yrotation Zrotation
						End Site
						{
							OFFSET 0.000000 6.203937 18.811996
						}
					}
				}
				JOINT RightShoulder
				{
					OFFSET -4.218800 0.587437 10.819992
					CHANNELS 3 Xrotation Yrotation Zrotation
					JOINT RightArm
					{
						OFFSET 0.000000 -0.000002 14.191406
						CHANNELS 3 Xrotation Yrotation Zrotation
						JOINT RightArmRoll
						{
							OFFSET 0.000000 -0.000001 7.164078
							CHANNELS 3 Xrotation Yrotation Zrotation
							JOINT RightForeArm
							{
								OFFSET 0.000000 -0.000004 20.866501
								CHANNELS 3 Xrotation Yrotation Zrotation
								JOINT RightForeArmRoll
								{
									OFFSET 0.000000 -0.000001 8.039215
									CHANNELS 3 Xrotation Yrotation Zrotation
									JOINT RightHand
									{
										OFFSET 0.000000 -0.000003 16.132996
										CHANNELS 3 Xrotation Yrotation Zrotation
										End Site
										{
											OFFSET 0.000000 0.000000 0.100006
										}
									}
								}
							}
						}
					}
				}
				JOINT LeftShoulder
				{
					OFFSET 4.218800 0.587437 10.819992
					CHANNELS 3 Xrotation Yrotation Zrotation
					JOINT LeftArm
					{
						OFFSET 0.000000 -0.000002 14.191406
						CHANNELS 3 Xrotation Yrotation Zrotation
						JOINT LeftArmRoll
						{
							OFFSET 0.000000 -0.000001 7.164078
							CHANNELS 3 Xrotation Yrotation Zrotation
							JOINT LeftForeArm
							{
								OFFSET 0.000000 -0.000004 20.866501
								CHANNELS 3 Xrotation Yrotation Zrotation
								JOINT LeftForeArmRoll
								{
									OFFSET 0.000000 -0.000001 8.039215
									CHANNELS 3 Xrotation Yrotation Zrotation
									JOINT LeftHand
									{
										OFFSET 0.000000 -0.000003 16.132996
										CHANNELS 3 Xrotation Yrotation Zrotation
										End Site
										{
											OFFSET 0.000000 0.000000 0.100006
										}
									}
								}
							}
						}
					}
				}
			}
		}
	}
	JOINT RightUpLeg
	{
		OFFSET -7.357731 1.131810 -1.349213
		CHANNELS 3 Xrotation Yrotation Zrotation
		JOINT RightUpLegRoll
		{
			OFFSET 0.000000 -0.000003 18.916801
			CHANNELS 3 Xrotation Yrotation Zrotation
			JOINT RightLeg
			{
				OFFSET 0.000000 0.000004 -23.425598
				CHANNELS 3 Xrotation Yrotation Zrotation
				JOINT RightLegRoll
				{
					OFFSET 0.000000 -0.000004 23.502296
					CHANNELS 3 Xrotation Yrotation Zrotation
					JOINT RightFoot
					{
						OFFSET 0.000000 -0.000003 19.561707
						CHANNELS 3 Xrotation Yrotation Zrotation
						JOINT RightToeBase
						{
							OFFSET 0.000000 -0.000003 16.352600
							CHANNELS 3 Xrotation Yrotation Zrotation
							End Site
							{
								OFFSET 0.006931 0.912836 7.919434
							}
						}
					}
				}
			}
		}
	}
	JOINT LeftUpLeg
	{
		OFFSET 7.357731 1.131810 -1.349213
		CHANNELS 3 Xrotation Yrotation Zrotation
		JOINT LeftUpLegRoll
		{
			OFFSET 0.000000 -0.000003 18.916901
			CHANNELS 3 Xrotation Yrotation Zrotation
			JOINT LeftLeg
			{
				OFFSET 0.000000 -0.000004 23.425507
				CHANNELS 3 Xrotation Yrotation Zrotation
				JOINT LeftLegRoll
				{
					OFFSET 0.000000 -0.000004 23.719498
					CHANNELS 3 Xrotation Yrotation Zrotation
					JOINT LeftFoot
					{
						OFFSET 0.000000 -0.000003 19.344406
						CHANNELS 3 Xrotation Yrotation Zrotation
						JOINT LeftToeBase
						{
							OFFSET 0.000000 -0.000003 16.352600
							CHANNELS 3 Xrotation Yrotation Zrotation
							End Site
							{
								OFFSET -0.031063 0.912835 7.919434
							}
						}
					}
				}
			}
		}
	}
}
MOTION
Frames: 5
Frame Time: 0.041667
54.885201 -14.481020 99.368698 -5.964038 1.879231 94.602887 -1.579607 0.902297 0.769171 0.831625 1.790742 1.554551 2.476766 1.809231 1.532945 11.544310 19.354246 -11.877079 -0.612562 -26.583194 -10.507627 -5.836894 -26.743233 -3.377502 -70.112828 -178.250111 -55.446690 -0.000004 -0.000005 0.000008 26.464456 10.874487 1.556685 0.000042 0.000017 -3.004063 -5.000100 -7.998963 0.000005 -16.688206 69.077562 19.856613 -99.485318 126.685693 133.125387 0.000001 -0.000001 -0.000001 101.673308 -5.308013 13.489988 0.000003 -0.000002 2.999996 -5.000294 7.998744 -0.000208 -0.657771 -176.652229 7.408396 -179.999991 0.000006 -1.632000 144.109451 -5.715681 -3.436041 -0.000001 0.000001 0.623725 67.373362 6.826916 2.385355 25.456914 -7.351631 -0.000001 -14.724985 173.431999 3.128351 -0.000003 -0.000004 -0.940378 -14.029185 1.865168 1.144747 -0.000003 0.000001 -0.224389 70.269048 -6.890011 -2.039725 25.456957 7.355640 -0.000003 
54.903904 -14.530714 99.367210 -6.013881 1.875172 94.756416 -1.556850 0.898093 0.770325 0.877178 1.782632 1.556402 2.522318 1.801134 1.534901 11.381366 19.603775 -11.900527 -0.514811 -26.880071 -10.523663 -5.689997 -26.638615 -3.158175 -69.485775 -178.163777 -55.726690 -0.000004 -0.000008 0.000010 26.278058 10.328926 1.441256 0.000043 0.000018 -3.004055 -5.000101 -7.998963 0.000003 -16.851738 69.110736 20.040803 -99.534277 126.491962 133.033807 -0.000001 0.000001 0.000001 101.572317 -5.316053 13.443074 0.000004 -0.000002 3.000001 -5.000294 7.998740 -0.000211 -0.789589 -176.637312 7.441772 -179.999991 0.000005 -1.632000 143.952657 -5.733674 -3.453728 -0.000006 0.000001 0.627079 67.367665 6.827115 2.385552 25.456916 -7.351648 -0.000001 -14.740605 173.391797 3.125955 -0.000003 -0.000004 -0.940290 -14.029857 1.849406 1.143861 -0.000002 0.000001 -0.225026 70.275277 -6.889895 -2.039819 25.456955 7.355641 -0.000003 
54.936409 -14.544817 99.373100 -6.066420 1.872608 94.912876 -1.534798 0.893050 0.771761 0.921342 1.772821 1.558826 2.566475 1.791352 1.537439 11.231817 19.834617 -11.930327 -0.435854 -27.162032 -10.548373 -5.554874 -26.552109 -2.957280 -68.892669 -178.082265 -56.007865 -0.000005 -0.000007 0.000008 26.105074 9.800107 1.330972 0.000040 0.000017 -3.004062 -5.000100 -7.998963 0.000004 -16.979693 69.139444 20.184812 -99.572834 126.287015 132.926546 -0.000000 -0.000001 -0.000000 101.469154 -5.323802 13.393017 0.000004 -0.000004 2.999999 -5.000293 7.998742 -0.000207 -0.922092 -176.626438 7.475331 -179.999991 0.000007 -1.632998 143.798322 -5.754946 -3.472632 -0.000003 0.000001 0.630522 67.361559 6.827346 2.385675 25.456914 -7.351672 0.000002 -14.763085 173.351840 3.130831 -0.000002 -0.000004 -0.940204 -14.037070 1.825549 1.142959 -0.000003 0.000001 -0.225907 70.283637 -6.889819 -2.039788 25.456957 7.355642 -0.000004 
54.970604 -14.582618 99.372696 -6.125956 1.870199 95.072886 -1.512470 0.887355 0.773425 0.966067 1.761698 1.561689 2.611202 1.780271 1.540434 11.085316 20.046110 -11.964233 -0.372059 -27.433909 -10.580319 -5.424737 -26.485699 -2.764724 -68.328085 -178.013363 -56.292285 -0.000007 -0.000005 0.000006 25.959029 9.268650 1.228484 0.000041 0.000018 -3.004064 -5.000101 -7.998963 0.000005 -17.086307 69.158486 20.304677 -99.591453 126.077219 132.796814 -0.000000 0.000001 0.000001 101.363805 -5.330962 13.342781 0.000002 -0.000001 2.999999 -5.000292 7.998743 -0.000210 -1.054710 -176.622572 7.508155 -179.999991 0.000006 -1.632998 143.645640 -5.779404 -3.491885 -0.000008 0.000001 0.634089 67.354299 6.827572 2.386273 25.456916 -7.351691 0.000000 -14.792069 173.310135 3.140125 -0.000003 -0.000004 -0.940119 -14.052330 1.794354 1.142052 -0.000003 0.000001 -0.227046 70.294442 -6.889716 -2.039800 25.456955 7.355640 -0.000004 
54.994698 -14.614819 99.377403 -6.191441 1.867769 95.236183 -1.489905 0.881064 0.775246 1.011262 1.749388 1.564866 2.656386 1.767998 1.543755 10.941704 20.240120 -12.001649 -0.321789 -27.695831 -10.618660 -5.299353 -26.439027 -2.580334 -67.790782 -177.955169 -56.579002 -0.000004 -0.000007 0.000009 25.838573 8.736280 1.133624 0.000042 0.000018 -3.004058 -5.000100 -7.998963 0.000005 -17.173495 69.169005 20.402619 -99.592286 125.862696 132.646290 0.000001 -0.000000 0.000001 101.255854 -5.337524 13.290349 0.000001 -0.000002 3.000001 -5.000294 7.998740 -0.000210 -1.187188 -176.624730 7.540133 -179.999991 0.000006 -1.632998 143.494597 -5.807037 -3.511481 -0.000001 0.000001 0.637752 67.346089 6.827810 2.387127 25.456912 -7.351713 -0.000001 -14.826763 173.266668 3.153238 -0.000002 -0.000004 -0.940035 -14.074751 1.756871 1.141139 -0.000003 0.000001 -0.228409 70.307372 -6.889649 -2.039784 25.456955 7.355641 -0.000004 
